# xmcd
#
# Track frame offsets:
#	150
#	3794
#	11712
#	32360
#	43102
#	62506
#	69401
#	86092
#	93896
#	105452
#	114068
#
# Disc length: 1788 seconds
#
# Revision: 1
# Processed by: cddbd v1.5.2PL0 Copyright (c) Steve Scherf et al.
# Submitted via: EasyCDDAExtractor 6.5.5.1
#
DISCID=7206fa0b
DTITLE=Heritage Quartet - Sing Out
DYEAR=2006
DGENRE=Gospel
TTITLE0=Sing Oh Sing
TTITLE1=Come Christians Joint To Sing
TTITLE2=A Pile Of Crowns
TTITLE3=Crown Him King
TTITLE4=Like A River Glorious
TTITLE5=I've Been Changed
TTITLE6=God Wants To Hear You Sing
TTITLE7=Won't It Be Wonderful There
TTITLE8=Almighty Father
TTITLE9=I SWing The Mighty Power Of God
TTITLE10=They Should Have Cried Mercy
EXTD=
EXTT0=
EXTT1=
EXTT2=
EXTT3=
EXTT4=
EXTT5=
EXTT6=
EXTT7=
EXTT8=
EXTT9=
EXTT10=
PLAYORDER=
